<?xml version="1.0" encoding="UTF-8" standalone="no"?>
<svg
   class="img-fluid"
   id="outputsvg"
   width="64"
   height="64"
   viewBox="0 0 64 64"
   version="1.1"
   sodipodi:docname="logo.svg"
   inkscape:version="1.4.4 (dcaf3e7d, 2026-05-05)"
   xml:space="preserve"
   xmlns:inkscape="http://www.inkscape.org/namespaces/inkscape"
   xmlns:sodipodi="http://sodipodi.sourceforge.net/DTD/sodipodi-0.dtd"
   xmlns="http://www.w3.org/2000/svg"
   xmlns:svg="http://www.w3.org/2000/svg"><defs
     id="defs2" /><sodipodi:namedview
     id="namedview2"
     pagecolor="#505050"
     bordercolor="#ffffff"
     borderopacity="1"
     inkscape:showpageshadow="0"
     inkscape:pageopacity="0"
     inkscape:pagecheckerboard="1"
     inkscape:deskcolor="#d1d1d1"
     inkscape:zoom="4.9539608"
     inkscape:cx="53.795339"
     inkscape:cy="60.557605"
     inkscape:window-width="1536"
     inkscape:window-height="901"
     inkscape:window-x="0"
     inkscape:window-y="31"
     inkscape:window-maximized="0"
     inkscape:current-layer="outputsvg" /><path
     id="path4"
     style="display:inline;fill:#465663;fill-opacity:1;stroke-width:0.0223857"
     d="m 38.539598,1.1277601 c -0.25061,0 -0.455746,0.3298719 -0.615242,0.9457323 -0.615143,2.3314751 -1.86837,3.7832688 -3.759414,4.3991368 -3.64537,1.209726 -7.313587,-0.6819593 -7.974301,-4.091194 -0.273403,-1.3416984 -0.523943,-1.40757424 -3.030145,-0.7257271 -2.939084,0.7918247 -5.308631,1.7156304 -7.131325,2.793389 -2.096081,1.2097342 -2.323809,1.4737077 -1.913689,2.2435373 0.18226,0.3299265 0.501271,0.8577147 0.683529,1.1876412 1.207536,2.1775054 0.159476,5.6966374 -2.118879,7.1703004 C 11.609284,15.710436 9.5588444,16.150453 8.3740879,15.9525 7.8956321,15.88651 6.9387156,15.51266 6.2552089,15.160739 L 5.0247258,14.47882 4.4094859,15.204547 c -1.2303182,1.407685 -3.2350802,5.718689 -4.10085845,8.863985 -0.52401918,1.847589 -0.41019898,2.353701 0.56950173,2.353701 0.84298752,0 2.73392762,1.011758 3.53135672,1.869561 1.0708274,1.187736 1.4583082,2.199333 1.4810874,3.848962 0,2.66141 -1.7999354,4.970862 -4.3289144,5.520745 -0.68350663,0.153959 -1.34407243,0.395893 -1.4807675,0.549853 -0.59237989,0.681847 2.3239117,8.226287 4.1465983,10.689737 0.5695957,0.769827 0.8200203,0.769738 2.3237434,0.0219 2.2555774,-1.121749 5.5592559,-0.61582 7.1313249,1.077801 1.184756,1.27572 1.549148,2.199518 1.571926,3.805156 0,1.341707 -0.113806,1.759725 -0.728948,2.925456 -0.410105,0.747833 -0.683364,1.473684 -0.63779,1.627651 0.273403,0.637858 4.94375,2.903405 7.973979,3.871188 1.936601,0.61586 2.164558,0.659786 3.167043,0.63779 0.865781,-0.04399 0.88856,-0.06612 1.184743,-1.209868 1.139185,-4.267046 6.333965,-5.784671 9.774284,-2.881326 0.934132,0.813821 1.435206,1.649517 1.822531,3.057202 l 0.273478,0.989862 1.23016,-0.0219 c 0.683508,-0.022 2.027752,-0.307865 3.053014,-0.63779 2.415057,-0.791825 6.789645,-2.881582 7.404801,-3.519438 l 0.478342,-0.505723 -0.706078,-1.209866 c -1.799899,-3.079316 -0.660747,-6.642413 2.620091,-8.182066 1.389794,-0.65985 3.508477,-0.57173 5.285599,0.198101 0.774653,0.351922 1.549438,0.571708 1.731695,0.505723 1.253107,-0.461901 5.445257,-10.403774 4.738969,-11.23959 -0.136701,-0.15396 -0.797351,-0.395894 -1.503637,-0.549853 -0.91134,-0.197961 -1.526479,-0.527836 -2.369485,-1.253675 -1.412572,-1.209724 -1.959353,-2.507521 -1.936559,-4.487074 0.02278,-2.815372 1.663068,-4.596727 5.21731,-5.65249 0.592378,-0.175965 0.683361,-0.286111 0.63779,-0.967958 -0.11391,-2.089541 -3.804775,-10.271699 -4.807258,-10.645609 -0.15948,-0.04399 -0.865716,0.220064 -1.594796,0.593982 -1.116391,0.61586 -1.503771,0.703823 -2.893567,0.703823 -1.959393,-0.022 -3.030189,-0.462059 -4.397204,-1.825753 C 48.290817,12.1032 48.154242,9.5299533 49.885807,6.6266006 50.136416,6.2306888 50.136278,6.010666 49.931225,5.7907099 49.475564,5.2628322 47.242762,3.9651598 45.442863,3.217326 43.734078,2.4914878 39.245898,1.1277601 38.539598,1.1277601 Z"
     inkscape:label="Logo Backing" /><path
     id="pAAhvpEv5"
     style="display:inline;fill:#e4f1f0;stroke-width:0.0223857"
     d="m 38.539438,1.1277603 c -0.25061,0 -0.455662,0.3299256 -0.615158,0.945786 C 37.309138,4.4050214 36.05603,5.8566977 34.164986,6.4725657 30.519616,7.6822917 26.851451,5.7907109 26.190737,2.3814763 25.917333,1.0397779 25.666709,0.97379119 23.160508,1.6556383 20.221424,2.447463 17.85194,3.3712539 16.029247,4.4490125 13.933166,5.6587467 13.705319,5.9226846 14.115439,6.692514 c 0.18226,0.3299266 0.501235,0.857812 0.683493,1.1877385 1.207536,2.1775045 0.159496,5.6967275 -2.118859,7.1703895 -1.070849,0.659861 -3.1213588,1.099756 -4.3061153,0.901804 C 7.8955019,15.886459 6.9385902,15.512543 6.2550836,15.160622 L 5.024772,14.478775 4.4096178,15.204612 c -1.2303182,1.407685 -3.2352715,5.718723 -4.10104972,8.864019 -0.52401918,1.847589 -0.41010663,2.353473 0.56959409,2.353473 0.84298753,0 2.73402653,1.01178 3.53145563,1.869582 1.0708275,1.187737 1.4581532,2.19951 1.4809324,3.84914 0,2.661409 -1.7999024,4.97089 -4.3288814,5.520772 -0.68350663,0.153959 -1.34423736,0.395912 -1.48093242,0.549871 -0.5923799,0.681848 2.32391992,8.226165 4.14660652,10.689615 0.5695957,0.769828 0.8202132,0.769828 2.3239364,0.02199 2.2555774,-1.121749 5.5591927,-0.61586 7.1312617,1.077761 1.184757,1.27572 1.54929,2.19951 1.572068,3.805147 0,1.341708 -0.113923,1.759617 -0.729065,2.925348 -0.410105,0.747833 -0.683523,1.473674 -0.63795,1.627641 0.273403,0.637858 4.944036,2.903352 7.974264,3.871135 1.936601,0.61586 2.164431,0.659852 3.166916,0.637856 0.865782,-0.04399 0.888559,-0.06599 1.184742,-1.209732 1.139185,-4.267047 6.333844,-5.784703 9.774163,-2.881358 0.934133,0.813821 1.435368,1.649638 1.822694,3.057323 l 0.273403,0.989777 1.230313,-0.022 c 0.683508,-0.022 2.027746,-0.30793 3.053008,-0.637856 2.415057,-0.791825 6.789508,-2.881358 7.404664,-3.519213 l 0.478456,-0.50589 -0.706301,-1.209726 c -1.799899,-3.079316 -0.660714,-6.64252 2.620124,-8.182173 1.389794,-0.65985 3.508668,-0.571877 5.28579,0.197954 0.774651,0.351922 1.54929,0.571877 1.731548,0.505891 1.253107,-0.461901 5.445286,-10.403679 4.738998,-11.239496 -0.136702,-0.153959 -0.797431,-0.395912 -1.503717,-0.549871 -0.91134,-0.197961 -1.526495,-0.527886 -2.369499,-1.253726 -1.412574,-1.209724 -1.959395,-2.50744 -1.936601,-4.486993 0.02278,-2.815372 1.663197,-4.596974 5.217439,-5.652738 0.592378,-0.175965 0.683508,-0.285934 0.637936,-0.967781 -0.113909,-2.089541 -3.804852,-10.271712 -4.807335,-10.645622 -0.159479,-0.04399 -0.865767,0.219947 -1.594847,0.593865 -1.116391,0.61586 -1.503716,0.703843 -2.893512,0.703843 -1.959393,-0.022 -3.030229,-0.461899 -4.397244,-1.825593 C 48.290822,12.103306 48.15412,9.5298799 49.885685,6.6265272 50.136294,6.2306154 50.136294,6.0106672 49.931242,5.7907109 49.47558,5.2628334 47.242782,3.9651263 45.442883,3.2172925 43.734097,2.4914543 39.245738,1.1277603 38.539438,1.1277603 Z M 24.573096,2.931358 c 0.04557,0.043983 0.250626,0.549874 0.478456,1.1437385 0.569586,1.4956677 1.936615,2.8593616 3.668164,3.6731822 1.275886,0.6158601 1.70877,0.7038425 3.280839,0.7038425 1.572068,0 1.982173,-0.087982 3.280839,-0.7038425 1.731548,-0.8138206 3.121357,-2.2215058 3.690943,-3.7171735 0.22783,-0.5718687 0.410103,-1.055764 0.432882,-1.0777597 0.06835,-0.1099699 3.463112,0.9897851 4.898479,1.561654 0.82021,0.351922 2.004952,0.9018032 2.665681,1.2537237 l 1.184741,0.6598513 -0.455676,0.9457866 c -1.321444,2.8813569 -0.432883,6.5765349 2.027745,8.4681079 1.572069,1.187735 2.916307,1.649636 4.830128,1.649636 1.275872,0 1.982173,-0.131974 2.825162,-0.483895 0.615157,-0.263939 1.184756,-0.483896 1.275887,-0.483896 0.273403,0 2.210004,3.937122 2.802382,5.718725 0.888561,2.595421 0.911338,2.85936 0.432884,2.85936 -0.615157,0 -3.007436,1.539658 -3.782073,2.441456 -2.961878,3.365251 -1.868265,8.710056 2.232783,10.975546 0.63795,0.373916 1.344238,0.659858 1.572082,0.659858 0.205038,0 0.387311,0.04398 0.387311,0.109971 0,0.505891 -1.61764,4.772937 -2.323926,6.158628 -1.253093,2.419457 -1.139185,2.331474 -2.528979,1.803597 -1.822679,-0.681848 -4.23775,-0.637856 -5.87817,0.08798 -3.64537,1.649627 -5.376918,5.388789 -4.101046,8.886015 0.273403,0.725837 0.501248,1.407683 0.546806,1.517654 0.09113,0.329926 -4.123827,2.309488 -6.424976,2.991337 -1.184742,0.373914 -2.164431,0.637854 -2.187225,0.593864 -0.02278,-0.022 -0.227832,-0.527877 -0.455676,-1.143739 -0.273389,-0.725839 -0.865767,-1.539659 -1.708756,-2.353479 -1.070834,-1.011773 -1.54929,-1.319703 -2.825177,-1.693621 -0.865766,-0.263938 -1.9366,-0.461897 -2.415055,-0.461897 -0.478455,0 -1.549289,0.197959 -2.415056,0.461897 -1.275887,0.373918 -1.754343,0.681848 -2.847956,1.715616 -0.888561,0.879808 -1.435367,1.605645 -1.708769,2.397464 -0.227832,0.637862 -0.524029,1.143746 -0.660731,1.121749 -0.113922,0 -1.321443,-0.373916 -2.66568,-0.835807 -2.096082,-0.725837 -5.171868,-2.155518 -5.718673,-2.639415 -0.09114,-0.08798 0.06834,-0.659852 0.341753,-1.253724 0.387327,-0.813813 0.501235,-1.495658 0.501235,-2.837366 0,-1.583642 -0.06835,-1.89157 -0.751859,-3.145296 C 15.16348,49.033058 14.160997,48.131253 12.406655,47.361432 10.606756,46.547612 9.0118927,46.481624 6.9841635,47.141476 5.8449786,47.515392 5.2753961,47.603377 5.1386911,47.449406 4.5691053,46.767558 3.0426029,43.424312 2.4046563,41.532732 1.584453,39.02529 1.6072371,39.179259 2.0401197,39.179259 c 0.2050574,0 0.7746432,-0.197959 1.2758849,-0.461897 C 7.5081909,36.671821 8.8296342,31.371005 6.0728087,27.829796 5.1159086,26.620063 3.794462,25.674277 2.5641454,25.30036 1.7895022,25.058409 1.7211497,24.970435 1.8350705,24.464545 2.3818722,22.177051 4.523537,17.316141 5.2298278,16.744271 c 0.2278399,-0.175964 0.5240208,-0.131974 1.1847499,0.175957 1.2530941,0.61586 2.7568107,0.791824 4.3061003,0.483894 2.59733,-0.527886 4.283307,-1.73761 5.37692,-3.915125 0.660729,-1.297715 0.751858,-1.671624 0.751858,-3.233279 C 16.826678,8.9580112 16.71277,8.2321729 16.348222,7.4623435 L 15.846989,6.4285745 17.03173,5.7687232 c 0.66073,-0.3519205 1.754343,-0.879806 2.460629,-1.1877369 1.344222,-0.5718767 5.012386,-1.7596062 5.080737,-1.6496283 z m 17.253328,12.540844 c -4.034135,0.06493 -7.444981,4.042073 -6.590604,7.980569 l 0.250626,1.099755 -1.777122,1.605638 -1.754342,1.605646 -1.663197,-1.561654 -1.64042,-1.561655 0.113924,-1.935563 c 0.113907,-2.15552 -0.227847,-3.255275 -1.54929,-4.860913 -1.435367,-1.759606 -4.898479,-2.815377 -6.949002,-2.155519 -1.435367,0.461892 -1.321445,0.857804 0.888559,3.035319 1.367017,1.3417 1.959395,2.089533 1.959395,2.463449 0,0.637856 -1.754342,2.375468 -2.392277,2.375468 -0.227847,0 -1.32146,-0.835808 -2.415072,-1.869576 -1.207521,-1.143748 -2.164432,-1.869586 -2.437836,-1.869586 -0.72908,0 -1.04804,0.813821 -1.04804,2.529436 0,2.661401 1.367015,4.728946 4.009904,6.09264 0.843002,0.439903 1.321443,0.505884 3.326409,0.527878 h 2.346706 l 1.458145,1.407687 c 0.82021,0.791825 1.480939,1.495666 1.480939,1.605644 0,0.109977 -0.72908,0.901796 -1.594847,1.781602 l -1.61764,1.583642 -1.86825,-0.08797 c -2.346706,-0.10998 -3.964347,0.417899 -5.354141,1.759605 -1.480939,1.407685 -2.187225,3.013322 -2.187225,4.904902 0,1.671625 0.31896,2.529436 0.956912,2.529436 0.22783,0 1.253092,-0.835815 2.323926,-1.869584 2.369484,-2.287493 2.665681,-2.353471 4.192177,-0.769829 0.842989,0.879808 1.025262,1.165742 0.842989,1.473672 -0.113924,0.219947 -1.048042,1.187737 -2.050525,2.15552 -1.77712,1.693618 -2.232781,2.485443 -1.594846,2.859359 0.979689,0.593867 4.169399,0.417909 5.650338,-0.329924 1.13917,-0.549881 2.460613,-2.001558 3.144121,-3.475224 0.524028,-1.077757 0.569599,-1.407685 0.478471,-3.123307 l -0.113924,-1.935563 1.685991,-1.671625 1.685977,-1.649636 1.64042,1.671624 1.640418,1.671633 -0.09113,1.935565 c -0.06835,1.715622 0,2.067542 0.524027,3.21128 1.253093,2.639415 3.394746,4.025104 6.174351,4.003108 2.118874,-0.02199 2.711252,-0.197951 2.802382,-0.835816 0.06835,-0.395904 -0.387326,-0.96778 -1.982174,-2.551422 -1.139185,-1.121751 -2.073302,-2.089543 -2.073302,-2.177516 0,-0.08798 0.47844,-0.637857 1.048041,-1.231728 1.503717,-1.539659 1.77712,-1.495667 4.169399,0.769829 1.093612,1.033769 2.164446,1.869584 2.369498,1.869584 0.615143,0 0.888561,-0.813821 0.865767,-2.573426 0,-2.001549 -0.637935,-3.453227 -2.096097,-4.860912 -1.389794,-1.31971 -3.144121,-1.89158 -5.445268,-1.759605 l -1.822694,0.109967 -1.594846,-1.649629 c -0.865782,-0.879805 -1.594847,-1.693618 -1.594847,-1.781601 0,-0.06599 0.660714,-0.769827 1.480923,-1.561652 l 1.458161,-1.407687 h 2.346706 c 2.004951,-0.02199 2.483407,-0.08798 3.326395,-0.527878 2.59733,-1.341698 3.98714,-3.453233 3.98714,-6.070644 0,-1.759607 -0.318976,-2.551432 -1.025262,-2.551432 -0.273404,0 -1.230315,0.725838 -2.437851,1.869586 -1.093611,1.033768 -2.187225,1.869576 -2.415056,1.869576 -0.250625,0 -0.88856,-0.417901 -1.412589,-0.923792 -1.435365,-1.363695 -1.367015,-1.693619 0.956912,-3.915125 1.070834,-1.033767 1.936601,-2.023546 1.936601,-2.243502 0,-0.50588 -0.615158,-0.791817 -2.118874,-0.96778 -0.273389,-0.03162 -0.545126,-0.04467 -0.814062,-0.04034 z m 0.149742,1.490988 c 0.07836,0.0031 0.134612,0.01753 0.163085,0.04502 0.09113,0.06599 -0.387311,0.61586 -1.04804,1.187739 -2.415057,2.177504 -2.483423,3.585197 -0.227847,5.67473 1.253109,1.143738 1.435368,1.23172 2.415072,1.23172 1.002483,0 1.161964,-0.08798 2.597331,-1.429681 0.842988,-0.791823 1.594847,-1.429679 1.663198,-1.429679 0.273403,0 -0.296183,2.067537 -0.75186,2.793374 -0.637936,0.989784 -1.959394,1.913576 -3.280838,2.265498 -0.934132,0.263938 -1.70877,0.219946 -3.645371,-0.109978 -0.615158,-0.131967 -0.888559,0.06598 -3.007435,2.111527 -1.298664,1.253724 -2.346721,2.419465 -2.346721,2.617419 0,0.197951 1.116406,1.495667 2.483423,2.85936 2.004951,2.023545 2.551758,2.46345 2.893512,2.309483 0.250624,-0.08798 1.070834,-0.21995 1.868265,-0.285938 2.961863,-0.197951 5.103516,1.407685 5.832596,4.421018 0.205053,0.835806 -0.06835,0.747835 -1.230315,-0.41791 -2.210019,-2.19951 -3.599813,-2.221505 -5.764245,-0.109977 -1.275887,1.231728 -1.36703,1.385689 -1.36703,2.331483 0,0.967784 0.06835,1.099757 1.503717,2.485444 0.843004,0.813813 1.526512,1.539654 1.526512,1.60564 0,0.219955 -1.982174,-0.197955 -2.665683,-0.549875 -2.323926,-1.187736 -3.371966,-3.871133 -2.528979,-6.55454 l 0.273404,-0.857802 -2.506202,-2.419467 c -1.367015,-1.319702 -2.642886,-2.397462 -2.82516,-2.397462 -0.182275,0 -1.458161,1.07776 -2.825161,2.397462 l -2.506202,2.419467 0.273404,0.857802 c 1.070834,3.43124 -0.751859,6.400571 -4.328878,7.082417 -0.478456,0.08798 -0.865784,0.08798 -0.865784,0.022 0,-0.08798 0.569586,-0.681848 1.275872,-1.3417 1.458161,-1.363693 1.982174,-2.35347 1.777136,-3.255275 -0.205067,-0.857802 -2.528993,-3.079308 -3.485905,-3.343248 -1.093613,-0.285942 -2.141653,0.197954 -3.713722,1.693621 l -1.275872,1.23172 0.113909,-0.857804 c 0.273418,-2.023554 2.164446,-4.047099 4.101047,-4.399019 0.865783,-0.153962 2.870734,0 3.57702,0.263939 0.341769,0.131973 0.911355,-0.329926 2.893528,-2.353471 1.367016,-1.385691 2.483407,-2.661403 2.483407,-2.837366 0,-0.197954 -1.070819,-1.363695 -2.392277,-2.639415 l -2.369485,-2.287483 -1.435368,0.329924 c -2.323941,0.527878 -4.397244,-0.153968 -5.787038,-1.957566 -0.637936,-0.791817 -1.367016,-2.837366 -1.093613,-3.101306 0.04557,-0.04399 0.797431,0.571878 1.663197,1.363695 1.480939,1.385689 1.64042,1.473671 2.642904,1.473671 0.979689,0 1.161962,-0.08798 2.415056,-1.23172 2.255576,-2.089533 2.187225,-3.475229 -0.273403,-5.696728 -0.637937,-0.571876 -1.093613,-1.07776 -1.025263,-1.143747 0.205053,-0.197959 2.255576,0.373918 3.030214,0.835819 0.888561,0.527877 2.050538,2.199502 2.255576,3.211273 0.09115,0.417909 0.06835,1.31971 0,2.001558 -0.09113,0.703843 -0.159479,1.451678 -0.159479,1.693621 0,0.439903 4.556725,4.948892 5.012386,4.948892 0.455677,0 5.057958,-4.508989 5.035181,-4.948892 0,-0.241943 -0.06835,-1.23172 -0.136702,-2.19951 -0.113924,-1.671625 -0.06835,-1.825593 0.592378,-2.903354 0.387311,-0.637856 1.07082,-1.407685 1.549275,-1.693619 0.7775,-0.500385 2.409725,-1.034453 2.958273,-1.012802 z"
     inkscape:label="Logo" /></svg>
