<?xml version="1.0" encoding="UTF-8" standalone="no"?>
<svg
   width="128"
   height="128"
   viewBox="0 0 128 128"
   preserveAspectRatio="xMinYMin"
   version="1.1"
   id="svg4"
   sodipodi:docname="nodejs.svg"
   inkscape:version="1.4.4 (dcaf3e7d, 2026-05-05)"
   xmlns:inkscape="http://www.inkscape.org/namespaces/inkscape"
   xmlns:sodipodi="http://sodipodi.sourceforge.net/DTD/sodipodi-0.dtd"
   xmlns="http://www.w3.org/2000/svg"
   xmlns:svg="http://www.w3.org/2000/svg">
  <defs
     id="defs4">
    <clipPath
       id="e">
      <path
         d="m 241.066,225.953 c -0.707,0.07 -1.398,0.29 -2.035,0.652 l -42.01,24.247 45.3,82.51 c 0.63,-0.09 1.25,-0.3 1.81,-0.624 l 42.13,-24.336 c 1.3,-0.754 2.19,-2.03 2.46,-3.476 l -46.18,-78.89 c -0.34,-0.067 -0.68,-0.102 -1.03,-0.102 -0.14,0 -0.28,0.007 -0.42,0.02"
         id="path6" />
    </clipPath>
    <linearGradient
       id="f"
       x1="0.043000001"
       x2="0.98400003"
       gradientTransform="matrix(97.417,0,0,97.417,192.862,279.652)"
       gradientUnits="userSpaceOnUse">
      <stop
         offset=".16"
         stop-color="#6BBF47"
         id="stop7" />
      <stop
         offset=".38"
         stop-color="#79B461"
         id="stop8" />
      <stop
         offset=".47"
         stop-color="#75AC64"
         id="stop9" />
      <stop
         offset=".7"
         stop-color="#659E5A"
         id="stop10" />
      <stop
         offset=".9"
         stop-color="#3E863D"
         id="stop11" />
    </linearGradient>
    <clipPath
       id="c">
      <path
         d="m 195.398,307.086 c 0.403,0.523 0.907,0.976 1.5,1.316 l 36.14,20.875 6.02,3.46 c 0.9,0.52 1.926,0.74 2.934,0.665 0.336,-0.027 0.672,-0.09 1,-0.183 l 44.434,-81.36 c -0.34,-0.37 -0.738,-0.68 -1.184,-0.94 l -27.586,-15.93 -14.582,-8.39 c -0.414,-0.24 -0.863,-0.41 -1.32,-0.53 z m 0,0"
         id="path3-3" />
    </clipPath>
    <linearGradient
       id="d"
       x1="-0.456"
       x2="0.58200002"
       gradientTransform="matrix(106.8057,-78.916731,78.916731,106.8057,235.18824,285.39477)"
       gradientUnits="userSpaceOnUse">
      <stop
         offset=".57"
         stop-color="#3E863D"
         id="stop4" />
      <stop
         offset=".72"
         stop-color="#619857"
         id="stop5" />
      <stop
         offset="1"
         stop-color="#76AC64"
         id="stop6" />
    </linearGradient>
    <clipPath
       id="a">
      <path
         d="m 239.03,226.605 -42.13,24.317 c -1.578,0.91 -2.546,2.59 -2.546,4.406 v 48.668 c 0,1.817 0.968,3.496 2.546,4.406 l 42.133,24.336 c 1.575,0.907 3.517,0.907 5.09,0 l 42.126,-24.336 c 1.57,-0.91 2.54,-2.59 2.54,-4.406 v -48.668 c 0,-1.816 -0.97,-3.496 -2.55,-4.406 l -42.12,-24.317 c -0.79,-0.453 -1.67,-0.68 -2.55,-0.68 -0.88,0 -1.76,0.227 -2.55,0.68"
         id="path1-8" />
    </clipPath>
    <linearGradient
       id="b"
       x1="-0.34799999"
       x2="1.251"
       gradientTransform="matrix(-38.064915,77.652126,-77.652126,-38.064915,258.72325,244.62943)"
       gradientUnits="userSpaceOnUse">
      <stop
         offset=".3"
         stop-color="#3E863D"
         id="stop1" />
      <stop
         offset=".5"
         stop-color="#55934F"
         id="stop2" />
      <stop
         offset=".8"
         stop-color="#5AAD45"
         id="stop3" />
    </linearGradient>
  </defs>
  <sodipodi:namedview
     id="namedview4"
     pagecolor="#505050"
     bordercolor="#ffffff"
     borderopacity="1"
     inkscape:showpageshadow="0"
     inkscape:pageopacity="0"
     inkscape:pagecheckerboard="1"
     inkscape:deskcolor="#d1d1d1"
     inkscape:zoom="2.7331136"
     inkscape:cx="110.49669"
     inkscape:cy="92.75136"
     inkscape:window-width="1536"
     inkscape:window-height="960"
     inkscape:window-x="0"
     inkscape:window-y="0"
     inkscape:window-maximized="0"
     inkscape:current-layer="svg4" />
  <path
     id="path2"
     style="fill:#83cd29;stroke-width:0.345092"
     d="m 66.388584,80.233084 c -3.330141,0 -5.313387,1.417294 -5.313387,3.774274 0,2.556444 1.968407,3.259051 5.164651,3.575156 3.823622,0.374426 4.121438,0.935889 4.121438,1.688533 0,1.305484 -1.040799,1.862118 -3.500618,1.862118 -3.09099,0 -3.770132,-0.771626 -3.997548,-2.30901 -0.02691,-0.164953 -0.154256,-0.298159 -0.323007,-0.298159 h -1.51461 c -0.186349,0 -0.347508,0.160813 -0.347508,0.347853 0,1.968057 1.070478,4.295361 6.182673,4.295361 3.700426,0 5.834822,-1.452494 5.834822,-3.99755 0,-2.522621 -1.724082,-3.200037 -5.313732,-3.674539 -3.626919,-0.480022 -3.972702,-0.715032 -3.972702,-1.564303 0,-0.701228 0.293329,-1.639188 2.979528,-1.639188 2.399771,0 3.286657,0.517638 3.650041,2.135775 0.03175,0.151842 0.165643,0.272968 0.322661,0.272968 h 1.514955 c 0.09317,0 0.183588,-0.05728 0.248121,-0.124232 0.0635,-0.07144 0.108359,-0.151841 0.09939,-0.248122 -0.234663,-2.786275 -2.092641,-4.096935 -5.835165,-4.096935 z m -3.128608,-9.633942 c -0.429295,0 -0.846856,0.08868 -1.216449,0.297814 L 50.349039,77.650413 C 49.592253,78.08661 49.132244,78.91 49.132244,79.78619 v 13.482407 c 0,0.875498 0.460009,1.697853 1.216795,2.135084 l 3.054067,1.763077 c 1.483897,0.731251 2.030868,0.719862 2.706214,0.719862 2.196858,0 3.451268,-1.333091 3.451268,-3.649694 V 80.9281 c 0,-0.188075 -0.162884,-0.322661 -0.347507,-0.322661 h -1.464918 c -0.18773,0 -0.347507,0.134586 -0.347507,0.322661 v 13.308826 c 0,1.026648 -1.069788,2.059509 -2.805602,1.191602 l -3.178299,-1.862117 c -0.1125,-0.06108 -0.198772,-0.169096 -0.198772,-0.297814 V 79.785844 c 0,-0.127685 0.08524,-0.257784 0.198772,-0.322661 l 11.669639,-6.728265 a 0.34440208,0.34440208 0 0 1 0.34751,0 l 11.669983,6.72861 c 0.111119,0.06695 0.198773,0.190836 0.198773,0.323006 v 13.482407 c 0,0.12872 -0.06488,0.260544 -0.173926,0.322662 l -11.69483,6.728607 c -0.100078,0.0597 -0.238115,0.0597 -0.34751,0 l -3.004372,-1.787577 a 0.31230851,0.31230851 0 0 0 -0.297816,0 c -0.829256,0.470019 -0.985237,0.524539 -1.763075,0.794399 -0.191526,0.067 -0.482439,0.17082 0.09939,0.49693 l 3.92301,2.308678 a 2.4139205,2.4139205 0 0 0 1.216795,0.323 2.3980462,2.3980462 0 0 0 1.21645,-0.32265 l 11.69483,-6.728963 c 0.756788,-0.439992 1.216451,-1.259587 1.216451,-2.135086 V 79.78619 c 0,-0.875846 -0.459663,-1.697856 -1.216451,-2.135087 L 64.476772,70.897647 c -0.366488,-0.209471 -0.78681,-0.298159 -1.21645,-0.298159 z" />
  <path
     d="m 86.141451,25.544459 a 0.69335595,0.69335595 0 0 0 -0.34334,0.09124 0.69303804,0.69303804 0 0 0 -0.343022,0.594805 V 43.72876 c 0,0.17167 -0.07979,0.325538 -0.228575,0.41169 a 0.47717895,0.47717895 0 0 1 -0.480358,0 l -2.859259,-1.64676 a 1.3701807,1.3701807 0 0 0 -1.372406,0 l -11.413828,6.587359 c -0.426632,0.246378 -0.686044,0.719742 -0.686044,1.2125 v 13.175035 c 0,0.49212 0.25973,0.942913 0.686044,1.189291 l 11.413828,6.587676 a 1.3670016,1.3670016 0 0 0 1.372406,0 l 11.413828,-6.587676 a 1.3695449,1.3695449 0 0 0 0.686362,-1.189291 V 30.622394 A 1.3943417,1.3943417 0 0 0 93.278154,29.409895 L 86.484473,25.61281 c -0.106499,-0.05945 -0.22476,-0.06994 -0.343022,-0.06835 z M 12.717566,41.990443 c -0.217449,0.0086 -0.422181,0.04673 -0.617376,0.159907 L 0.68604384,48.738027 A 1.3670016,1.3670016 0 0 0 -2.413576e-7,49.92732 L 0.02288909,67.609009 c 0,0.245743 0.12684504,0.474318 0.34302204,0.594487 a 0.66633383,0.66633383 0 0 0 0.68636197,0 l 6.7704731,-3.888325 c 0.428857,-0.254962 0.7089334,-0.698125 0.7089334,-1.189609 v -8.257326 c 0,-0.492756 0.2590945,-0.944821 0.686362,-1.189609 l 2.8818304,-1.66965 a 1.3514242,1.3514242 0 0 1 0.686362,-0.183115 c 0.235251,0 0.476861,0.05881 0.686044,0.183115 l 2.882148,1.66965 a 1.36573,1.36573 0 0 1 0.686362,1.189609 v 8.257008 c 0,0.491485 0.282938,0.937826 0.708933,1.189609 l 6.770475,3.888643 a 0.66633383,0.66633383 0 0 0 0.686362,0 0.68795153,0.68795153 0 0 0 0.34334,-0.594805 L 25.572148,49.92732 A 1.3606435,1.3606435 0 0 0 24.886107,48.738027 L 13.472278,42.15035 C 13.279308,42.037175 13.07394,41.999344 12.854902,41.990443 Z M 115.28211,42.15035 c -0.23843,0 -0.47209,0.0604 -0.68604,0.183115 l -11.41383,6.587676 a 1.3689091,1.3689091 0 0 0 -0.68636,1.189293 v 13.175035 c 0,0.495618 0.27912,0.944503 0.70893,1.189609 l 11.32259,6.450341 c 0.41805,0.23843 0.92861,0.256551 1.34952,0.02225 l 6.86203,-3.819657 c 0.21776,-0.120804 0.36495,-0.346519 0.36591,-0.594486 a 0.67587105,0.67587105 0 0 0 -0.34302,-0.594805 l -11.4825,-6.587676 c -0.21491,-0.122713 -0.36591,-0.370998 -0.36591,-0.617694 V 54.61645 c 0,-0.246378 0.15259,-0.472092 0.36591,-0.594804 l 3.56819,-2.058768 a 0.68509036,0.68509036 0 0 1 0.68636,0 l 3.56788,2.058768 a 0.68413664,0.68413664 0 0 1 0.34334,0.594486 v 3.24806 a 0.68350082,0.68350082 0 0 0 0.34302,0.594487 c 0.21395,0.123666 0.47273,0.123984 0.68604,0 l 6.83946,-3.979247 A 1.3749493,1.3749493 0 0 0 128,53.289826 v -3.179074 c 0,-0.491168 -0.26069,-0.942915 -0.68637,-1.189611 l -11.34516,-6.587676 a 1.3603256,1.3603256 0 0 0 -0.68636,-0.182797 z m -34.127354,9.835738 c 0.05977,0 0.129707,0.01462 0.183115,0.04546 l 3.911532,2.264454 c 0.106181,0.06136 0.183115,0.174849 0.183115,0.297243 v 4.528908 c 0,0.12303 -0.0763,0.236205 -0.183115,0.297562 l -3.911532,2.264454 a 0.34588321,0.34588321 0 0 1 -0.343022,0 L 77.083635,59.419716 C 76.977136,59.358042 76.90052,59.245184 76.90052,59.122154 v -4.528908 c 0,-0.122712 0.07693,-0.235251 0.183115,-0.297243 l 3.911214,-2.264137 a 0.30137618,0.30137618 0 0 1 0.160225,-0.04546 v -3.18e-4 z"
     fill="#404137"
     id="path3"
     style="stroke-width:0.317907" />
  <path
     style="stroke-width:0.317907;fill:#83cd29;fill-opacity:1"
     d="m 115.25922,53.838852 c -0.0455,0 -0.096,0 -0.13702,0.02289 l -2.19578,1.280849 a 0.26704218,0.26704218 0 0 0 -0.13734,0.228893 v 2.515919 c 0,0.09474 0.0547,0.181525 0.13734,0.228893 l 2.19578,1.25796 c 0.0823,0.04769 0.17008,0.04769 0.25147,0 l 2.19578,-1.258277 a 0.26894963,0.26894963 0 0 0 0.13734,-0.228576 v -2.516237 a 0.26894963,0.26894963 0 0 0 -0.13734,-0.228575 l -2.19578,-1.281167 c -0.0407,-0.02384 -0.0687,-0.02225 -0.11445,-0.02225 z"
     id="path5" />
  <path
     style="stroke-width:0.317907;fill:#83cd29;fill-opacity:1"
     d="m 47.00483,42.081682 c -0.237795,0 -0.473046,0.0604 -0.686044,0.183115 l -11.413828,6.564787 c -0.42695,0.245742 -0.686362,0.72006 -0.686362,1.212182 v 13.175035 c 0,0.492757 0.25973,0.942913 0.686362,1.189609 l 11.413828,6.587359 a 1.3660479,1.3660479 0 0 0 1.372406,0 L 59.10502,64.40641 a 1.3695449,1.3695449 0 0 0 0.686044,-1.189609 V 50.041766 c 0,-0.492758 -0.259413,-0.96644 -0.686044,-1.212182 L 47.691192,42.264797 A 1.3660479,1.3660479 0 0 0 47.00483,42.081682 Z"
     id="path4" />
</svg>
