<?xml version="1.0" encoding="UTF-8" standalone="no"?>
<svg
   class="img-fluid"
   id="outputsvg"
   width="1024"
   height="1024"
   viewBox="0 0 1024 1024"
   version="1.1"
   sodipodi:docname="logo.svg"
   inkscape:version="1.4.4 (dcaf3e7d, 2026-05-05)"
   xml:space="preserve"
   inkscape:export-filename="../Projects/dfreerksen/saeng/assets/icons/win/icon.png"
   inkscape:export-xdpi="96"
   inkscape:export-ydpi="96"
   xmlns:inkscape="http://www.inkscape.org/namespaces/inkscape"
   xmlns:sodipodi="http://sodipodi.sourceforge.net/DTD/sodipodi-0.dtd"
   xmlns="http://www.w3.org/2000/svg"
   xmlns:svg="http://www.w3.org/2000/svg"><defs
     id="defs2" /><sodipodi:namedview
     id="namedview2"
     pagecolor="#505050"
     bordercolor="#ffffff"
     borderopacity="1"
     inkscape:showpageshadow="0"
     inkscape:pageopacity="0"
     inkscape:pagecheckerboard="1"
     inkscape:deskcolor="#d1d1d1"
     inkscape:zoom="0.2688755"
     inkscape:cx="329.14862"
     inkscape:cy="918.64078"
     inkscape:window-width="1536"
     inkscape:window-height="901"
     inkscape:window-x="0"
     inkscape:window-y="31"
     inkscape:window-maximized="0"
     inkscape:current-layer="outputsvg" /><path
     id="rect6"
     style="fill:#465663;stroke-width:123.286;stroke-linecap:square;stroke-linejoin:round;paint-order:stroke fill markers"
     inkscape:label="Background"
     d="m 603.96287,77.859217 c -3.5242,0 -6.40895,4.638823 -8.65185,13.299359 -8.65044,32.786364 -26.27395,53.202214 -52.86677,61.862854 C 491.18127,170.0332 439.59696,143.43138 430.30566,95.489022 426.46094,76.621388 422.93772,75.695011 387.69426,85.283485 346.36339,96.41852 313.04163,109.40954 287.41,124.56552 c -29.47614,17.01188 -32.67856,20.72401 -26.91125,31.54974 2.56303,4.63959 7.04912,12.06161 9.61214,16.7012 16.98097,30.62116 2.24262,80.10896 -29.79674,100.83234 -15.05881,9.27929 -43.89311,15.46702 -60.55375,12.68331 -6.72828,-0.92794 -20.18493,-6.18526 -29.79673,-11.13414 l -17.30367,-9.58948 -8.65181,10.20553 c -17.30135,19.79557 -45.493317,80.41907 -57.668324,124.6498 -7.369019,25.98169 -5.768423,33.0989 8.008618,33.0989 11.854512,0 38.445856,14.22784 49.659706,26.29069 15.05851,16.70256 20.50745,30.92814 20.82779,54.12607 0,37.42604 -25.31159,69.90271 -60.875359,77.63543 -9.611812,2.16507 -18.901019,5.56728 -20.823293,7.7323 -8.330342,9.58848 32.680007,115.68217 58.311542,150.32443 8.00994,10.8257 11.53153,10.82447 32.67764,0.30797 31.71905,-15.77461 78.17703,-8.65997 100.28425,15.15656 16.66064,17.93981 21.78489,30.93072 22.1052,53.50999 0,18.86776 -1.60038,24.74613 -10.25083,41.13925 -5.7671,10.51639 -9.6098,20.72366 -8.96891,22.88882 3.84473,8.96988 69.52148,40.82914 112.13407,54.43861 27.23344,8.66052 30.43909,9.27822 44.53654,8.96884 12.17503,-0.61857 12.49537,-0.92979 16.66044,-17.01371 16.01979,-60.00532 89.07138,-81.34692 137.45088,-40.51863 13.13624,11.44434 20.18257,23.19633 25.62932,42.9919 l 3.84578,13.91994 17.29913,-0.30797 c 9.61186,-0.30938 28.51526,-4.32938 42.93302,-8.96895 33.96174,-11.13504 95.47938,-40.52225 104.12999,-49.49209 l 6.7267,-7.11172 -9.92922,-17.01373 c -25.31109,-43.3029 -9.29176,-93.40895 36.84501,-115.06032 19.544,-9.27914 49.33797,-8.03995 74.32875,2.78579 10.89355,4.94891 21.78897,8.03967 24.35196,7.11172 17.62183,-6.49547 76.57397,-146.30305 66.6418,-158.05673 -1.92243,-2.16503 -11.21282,-5.56724 -21.14494,-7.7323 -12.81571,-2.78381 -21.46612,-7.42268 -33.32088,-17.62981 -19.8643,-17.01172 -27.55343,-35.26199 -27.23287,-63.09945 0.32027,-39.59117 23.38692,-64.64148 73.36842,-79.48814 8.33027,-2.47451 9.60978,-4.02345 8.96888,-13.61193 -1.6018,-29.38416 -53.50461,-144.44574 -67.60202,-149.70385 -2.24268,-0.61863 -12.17411,3.09464 -22.4268,8.35287 -15.69927,8.66053 -21.1468,9.89751 -40.69079,9.89751 -27.55396,-0.30931 -42.61205,-6.49771 -61.8357,-25.67465 -27.8743,-28.45613 -29.79488,-64.64241 -5.44475,-105.4708 3.52417,-5.56752 3.52224,-8.66159 0.63868,-11.75472 -6.40775,-7.42328 -37.8065,-25.6718 -63.11759,-36.18821 C 677.01024,97.036601 613.89521,77.859182 603.96287,77.859182 Z" /><path
     id="pAAhvpEv5"
     style="display:inline;fill:#e4f1f0;stroke-width:0.314799"
     d="m 603.961,77.859626 c -3.5242,0 -6.40775,4.639579 -8.65065,13.300116 -8.65044,32.786368 -26.27227,53.200568 -52.86509,61.861208 -51.26301,17.01177 -102.84658,-9.58858 -112.13788,-57.530943 -3.84473,-18.867633 -7.36914,-19.795571 -42.61258,-10.207097 -41.33087,11.135036 -74.65172,24.12584 -100.28334,39.28182 -29.47615,17.01189 -32.68024,20.72351 -26.91294,31.54924 2.56304,4.63959 7.04862,12.06298 9.61163,16.70258 16.98097,30.62116 2.24291,80.11022 -29.79646,100.8336 -15.05881,9.27929 -43.8941,15.46532 -60.55474,12.6816 -6.72829,-0.92793 -20.18485,-6.18613 -29.79667,-11.13501 l -17.30125,-9.58847 -8.65061,10.20707 c -17.30135,19.79558 -45.496001,80.41955 -57.671007,124.65027 -7.36902,25.98172 -5.767124,33.09573 8.009916,33.09573 11.854511,0 38.447251,14.22815 49.661091,26.291 15.05851,16.70252 20.50528,30.93061 20.82561,54.12849 0,37.42608 -25.31112,69.90314 -60.87489,77.63586 -9.611811,2.16507 -18.903336,5.56752 -20.82561,7.73259 -8.330343,9.58848 32.680123,115.68044 58.31165,150.3227 8.00994,10.8257 11.53425,10.8257 32.68035,0.30938 31.71906,-15.77461 78.17615,-8.66053 100.28338,15.156 16.66063,17.93981 21.78688,30.9306 22.1072,53.50988 0,18.86776 -1.60204,24.74462 -10.25249,41.1377 -5.7671,10.51639 -9.61203,20.72355 -8.97116,22.88872 3.84473,8.96987 69.5255,40.82836 112.13809,54.43783 27.23344,8.66053 30.4373,9.2791 44.53473,8.96981 12.17507,-0.61857 12.49537,-0.92795 16.66044,-17.01183 16.01979,-60.00536 89.06969,-81.34738 137.44919,-40.51909 13.13624,11.44434 20.18486,23.19803 25.63161,42.99359 l 3.84473,13.91876 17.30126,-0.30938 c 9.61186,-0.30937 28.5152,-4.33027 42.93296,-8.96984 33.96171,-11.13504 95.47744,-40.51909 104.12806,-49.48896 l 6.72831,-7.11404 -9.93238,-17.01179 c -25.31106,-43.30287 -9.29127,-93.41044 36.8455,-115.0618 19.54396,-9.27914 49.34064,-8.04203 74.33142,2.78374 10.89352,4.94888 21.78689,8.04199 24.34989,7.11408 17.62182,-6.49547 76.57432,-146.30174 66.64215,-158.05539 -1.92235,-2.16507 -11.21388,-5.56752 -21.14599,-7.73258 -12.81572,-2.78382 -21.46637,-7.42339 -33.3211,-17.63051 -19.86433,-17.01176 -27.55399,-35.26088 -27.23347,-63.09833 0.32028,-39.59118 23.38872,-64.64496 73.37029,-79.49162 8.33027,-2.47451 9.6118,-4.02096 8.97099,-13.60944 -1.60189,-29.38417 -53.50577,-144.44594 -67.60321,-149.70405 -2.24266,-0.61863 -12.17482,3.093 -22.42751,8.35122 -15.69927,8.66053 -21.14603,9.89778 -40.69002,9.89778 -27.55399,-0.3093 -42.61261,-6.49544 -61.83626,-25.67239 -27.87429,-28.45612 -29.79667,-64.64493 -5.44654,-105.47333 3.5242,-5.56751 3.5242,-8.66053 0.64065,-11.75366 -6.40775,-7.42335 -37.80647,-25.67236 -63.11756,-36.18877 C 677.0109,97.036573 613.89334,77.859626 603.961,77.859626 Z M 407.55932,103.22272 c 0.64088,0.61851 3.52443,7.7326 6.72827,16.08382 8.00982,21.03283 27.23368,40.20977 51.58357,51.65413 17.94216,8.66053 24.02957,9.89778 46.13681,9.89778 22.1072,0 27.8743,-1.23725 46.13677,-9.89778 24.34992,-11.44436 43.89409,-31.23993 51.90388,-52.27276 3.20386,-8.0419 5.7671,-14.84668 6.08741,-15.15599 0.96121,-1.54645 48.70002,13.91885 68.88487,21.96075 11.5342,4.94891 28.19465,12.68161 37.48613,17.63049 l 16.66044,9.27916 -6.40797,13.30012 c -18.58278,40.51909 -6.08741,92.48252 28.5152,119.08277 22.1072,16.70252 41.01054,23.198 67.92367,23.198 17.94192,0 27.87429,-1.85588 39.72881,-6.80477 8.65065,-3.71164 16.66065,-6.80478 17.94216,-6.80478 3.84473,0 31.0782,55.36578 39.40851,80.41956 12.49537,36.49811 12.81568,40.20977 6.08744,40.20977 -8.65065,0 -42.29209,21.65143 -53.18543,34.33296 -41.6514,47.32382 -26.27247,122.48518 31.39854,154.34359 8.97117,5.25822 18.90334,9.27928 22.10741,9.27928 2.88334,0 5.44655,0.61851 5.44655,1.54646 0,7.11407 -22.74806,67.11943 -32.68023,86.60569 -17.62161,34.02362 -16.01979,32.78637 -35.56375,25.36309 -25.63143,-9.58848 -59.59335,-8.96983 -82.66176,1.23725 -51.26301,23.19789 -75.6129,75.77983 -57.67098,124.95959 3.84476,10.20709 7.04883,19.79553 7.68948,21.34198 1.28148,4.63961 -57.99132,32.47717 -90.35124,42.06569 -16.66041,5.25817 -30.4373,8.96983 -30.75785,8.35122 -0.32027,-0.30937 -3.20386,-7.42328 -6.40793,-16.08384 -3.84455,-10.20709 -12.17485,-21.65147 -24.0294,-33.09578 -15.05858,-14.22808 -21.78686,-18.55835 -39.72902,-23.81656 -12.17486,-3.71162 -27.23344,-6.49544 -33.96171,-6.49544 -6.72828,0 -21.78689,2.78382 -33.96175,6.49544 -17.94213,5.25821 -24.67044,9.58848 -40.04936,24.12583 -12.49538,12.37233 -20.18486,22.57942 -24.02958,33.71435 -3.20387,8.96994 -7.36915,16.08395 -9.29151,15.77461 -1.60203,0 -18.5828,-5.25821 -37.48613,-11.75354 -29.47615,-10.20709 -72.72938,-30.31197 -80.41883,-37.11677 -1.28172,-1.23726 0.96095,-9.27918 4.8059,-17.63051 5.44679,-11.44424 7.04861,-21.03268 7.04861,-39.90044 0,-22.26998 -0.96118,-26.60021 -10.57302,-44.23071 -12.81569,-22.88858 -26.91311,-35.57022 -51.58355,-46.39581 -25.31107,-11.44434 -47.73884,-12.37229 -76.25378,-3.09315 -16.01978,5.25821 -24.02954,6.4955 -25.95195,4.33026 -8.0098,-9.58848 -29.47624,-56.60286 -38.447367,-83.2032 -11.53411,-35.26091 -11.213707,-33.09571 -5.126297,-33.09571 2.88362,0 10.893424,-2.78381 17.942134,-6.49543 C 167.58411,577.69795 186.1669,503.15524 147.39904,453.35698 133.94264,436.34512 115.35979,423.04501 98.058469,417.7868 87.165047,414.38438 86.20384,413.14723 87.805851,406.03314 95.49525,373.86527 125.61241,305.50872 135.54462,297.4668 c 3.204,-2.47449 7.36905,-1.85588 16.66055,2.47439 17.62163,8.66053 38.76765,11.13503 60.55454,6.80476 36.52494,-7.42339 60.23399,-24.43513 75.61293,-55.05644 9.2915,-18.24911 10.57299,-23.50722 10.57299,-45.46798 -0.32031,-18.249 -1.92213,-28.45611 -7.04859,-39.28183 l -7.0486,-14.53738 16.66043,-9.27916 c 9.29151,-4.94888 24.67044,-12.37227 34.60259,-16.70254 18.90312,-8.04202 70.48667,-24.74447 71.44786,-23.1979 z m 242.6249,176.35561 c -56.73002,0.91304 -104.69502,56.84165 -92.68034,112.22675 l 3.52441,15.46531 -24.99075,22.57929 -24.67044,22.57938 -23.38871,-21.96077 -23.06841,-21.96075 1.60204,-27.21887 c 1.60182,-30.312 -3.20407,-45.7773 -21.78689,-68.35658 -20.18485,-24.74445 -68.88484,-39.59123 -97.72032,-30.31199 -20.18485,6.49537 -18.58282,12.06288 12.49536,42.68418 19.22367,18.86765 27.55399,29.38405 27.55399,34.64225 0,8.96984 -24.67044,33.40502 -33.6414,33.40502 -3.20409,0 -18.58303,-11.75356 -33.96194,-26.29091 -16.98077,-16.08397 -30.43733,-26.29106 -34.28207,-26.29106 -10.25268,0 -14.73806,11.44436 -14.73806,35.5702 0,37.42595 19.22365,66.5008 56.38927,85.67773 11.85472,6.18616 18.58279,7.11401 46.77763,7.42331 h 33.00054 l 20.50518,19.79557 c 11.5342,11.13504 20.82568,21.03282 20.82568,22.57938 0,1.54656 -10.25269,12.68149 -22.42751,25.05379 l -22.74808,22.26997 -26.27226,-1.23715 c -33.00055,-1.54656 -55.74862,5.87672 -75.2926,24.74444 -20.8257,19.79557 -30.75785,42.37485 -30.75785,68.97519 0,23.50723 4.48538,35.57022 13.45657,35.57022 3.20386,0 17.62161,-11.75365 32.68022,-26.29104 33.32086,-32.16786 37.48613,-33.09567 58.95248,-10.82574 11.85454,12.37233 14.41775,16.39326 11.85454,20.72352 -1.60207,3.09301 -14.73809,16.70256 -28.83551,30.312 -24.99075,23.8165 -31.3985,34.95154 -22.42753,40.20975 13.77688,8.35126 58.63216,5.87682 79.45785,-4.63957 16.01958,-7.73269 34.6024,-28.1469 44.21423,-48.87031 7.36913,-15.15597 8.01,-19.79557 6.72848,-43.92151 l -1.60204,-27.21885 23.70924,-23.50723 23.70906,-23.19802 23.0684,23.50722 23.06837,23.50733 -1.28148,27.21889 c -0.96117,24.12594 0,29.07481 7.36914,45.15862 17.62161,37.11677 47.7386,56.60304 86.82679,56.2937 29.79668,-0.30938 38.12699,-2.78368 39.4085,-11.75365 0.96118,-5.56742 -5.44675,-13.60941 -27.87433,-35.87938 -16.01979,-15.77461 -29.15582,-29.38419 -29.15582,-30.6213 0,-1.23726 6.7281,-8.96987 14.7381,-17.32121 21.14603,-21.65143 24.99075,-21.03278 58.63219,10.82574 15.37889,14.53739 30.4375,26.29104 33.32105,26.29104 8.65044,0 12.49538,-11.44438 12.17486,-36.18883 0,-28.14676 -8.97096,-48.56101 -29.47637,-68.35658 -19.54399,-18.55842 -44.21422,-26.60034 -76.57411,-24.74444 l -25.63161,1.54642 -22.42754,-23.19789 c -12.17503,-12.37226 -22.42751,-23.81649 -22.42751,-25.05378 0,-0.92792 9.2913,-10.8257 20.82547,-21.96074 l 20.50538,-19.79557 h 33.00057 c 28.19461,-0.30937 34.92292,-1.23715 46.77743,-7.42331 36.52495,-18.86762 56.06915,-48.56108 56.06915,-85.36842 0,-24.74447 -4.48562,-35.87951 -14.41775,-35.87951 -3.84472,0 -17.30131,10.20709 -34.28227,26.29106 -15.37892,14.53735 -30.75785,26.29091 -33.96174,26.29091 -3.52442,0 -12.49538,-5.87673 -19.86451,-12.99083 -20.18486,-19.17696 -19.22365,-23.81651 13.45654,-55.05644 15.05862,-14.53736 27.23348,-28.45611 27.23348,-31.54924 0,-7.11395 -8.65066,-11.13494 -29.79668,-13.60942 -3.84451,-0.44459 -7.66582,-0.62812 -11.44776,-0.56729 z m 2.10576,20.96702 c 1.10197,0.043 1.89299,0.24648 2.29338,0.63309 1.28152,0.92794 -5.44655,8.66054 -14.73806,16.70258 -33.96175,30.62115 -34.92313,50.41684 -3.20411,79.80089 17.62186,16.08382 20.18486,17.32108 33.96196,17.32108 14.09741,0 16.34013,-1.23726 36.52499,-20.10491 11.85451,-11.13501 22.4275,-20.10486 23.38871,-20.10486 3.84472,0 -4.16507,29.07473 -10.57303,39.28182 -8.971,13.91885 -27.55399,26.90968 -46.13678,31.85856 -13.13623,3.71165 -24.02961,3.09301 -51.26305,-1.54656 -8.65065,-1.85576 -12.49537,0.92791 -42.29205,29.69335 -18.26244,17.63051 -33.00075,34.02373 -33.00075,36.80747 0,2.78367 15.69945,21.03279 34.92313,40.20975 28.19461,28.4561 35.88409,34.64226 40.69002,32.47709 3.52438,-1.23718 15.05858,-3.09304 26.27247,-4.02099 41.65119,-2.78371 71.76818,19.79557 82.02087,62.17055 2.88355,11.75351 -0.96117,10.51643 -17.30131,-5.87686 -31.07837,-30.9306 -50.62236,-31.23991 -81.05969,-1.54655 -17.94217,17.32116 -19.22386,19.48626 -19.22386,32.78647 0,13.60947 0.96117,15.46534 21.14603,34.95157 11.85472,11.44423 21.46658,21.65136 21.46658,22.57931 0,3.09311 -27.87433,-2.78374 -37.48616,-7.73262 -32.68023,-16.70256 -47.41829,-54.4378 -35.56378,-92.17321 l 3.84476,-12.06285 -35.24347,-34.02376 c -19.22365,-18.55828 -37.16561,-33.71432 -39.72881,-33.71432 -2.56324,0 -20.50541,15.15604 -39.72885,33.71432 l -35.24344,34.02376 3.84473,12.06285 c 15.05861,48.25181 -10.57303,90.00801 -60.87485,99.59649 -6.72828,1.23725 -12.17507,1.23725 -12.17507,0.30937 0,-1.23715 8.0098,-9.58848 17.94194,-18.86765 20.5054,-19.17693 27.87433,-33.09567 24.99098,-45.77731 -2.88376,-12.06284 -35.56397,-43.30276 -49.02054,-47.01441 -15.37894,-4.02107 -30.117,2.78371 -52.22422,23.81653 l -17.94194,17.32106 1.60185,-12.06288 c 3.84494,-28.45621 30.43751,-56.91231 57.67096,-61.86118 12.17507,-2.1651 40.36971,0 50.30185,3.71162 4.80613,1.8559 12.81591,-4.63957 40.69021,-33.09567 19.22368,-19.48627 34.92292,-37.42597 34.92292,-39.90045 0,-2.78374 -15.05837,-19.17696 -33.64141,-37.11677 l -33.32086,-32.16776 -20.18485,4.63957 c -32.68043,7.42328 -61.83624,-2.16516 -81.38022,-27.52825 -8.97098,-11.13494 -19.22367,-39.90048 -15.37894,-43.61214 0.64086,-0.61861 11.21387,8.04205 23.38872,19.17696 20.8257,19.48627 23.0684,20.72352 37.16582,20.72352 13.77688,0 16.3401,-1.23725 33.96174,-17.32108 31.71902,-29.38405 30.75785,-48.8704 -3.84474,-80.11022 -8.97098,-8.04202 -15.37894,-15.15601 -14.41775,-16.08395 2.88354,-2.7838 31.71902,5.25822 42.61238,11.7537 12.49537,7.42327 28.83567,30.93049 31.71901,45.15853 1.28173,5.87684 0.96121,18.55842 0,28.1469 -1.28148,9.8978 -2.24265,20.41423 -2.24265,23.81654 0,6.18614 64.07894,69.59381 70.48666,69.59381 6.40797,0 71.12756,-63.40767 70.80725,-69.59381 0,-3.40231 -0.9612,-17.32106 -1.92238,-30.93061 -1.60207,-23.50722 -0.96117,-25.67239 8.33031,-40.8284 5.44658,-8.96985 15.05841,-19.79557 21.78668,-23.81652 10.9336,-7.03667 33.88676,-14.54699 41.60071,-14.24252 z"
     inkscape:label="Logo" /></svg>
